<svg width="230" height="230" viewBox="0 0 230 230" fill="none" xmlns="http://www.w3.org/2000/svg">
<g clip-path="url(#clip0_5_903)">
<rect width="230" height="230" rx="115" fill="#FF649A"/>
<circle cx="102" cy="137" r="128" fill="#696EFF"/>
<path d="M67.2365 105.285C67.2365 105.285 63.6639 105.224 65.5494 99.4934C66.5289 96.5166 68.284 90.8904 73.7862 85.2226C83.7098 75.0002 97.0077 75.0002 97.0077 75.0002H171.436C171.436 75.0002 175.181 74.8841 173.619 80.5668C172.81 83.5105 171.275 88.4545 165.581 94.8376C154.601 106.417 141.069 105.286 141.069 105.286L67.2365 105.285Z" fill="white"/>
<path d="M156.674 116.479H106.725C106.725 116.479 105.832 116.494 104.94 117.196C104.047 117.897 104.001 119.3 104.001 119.3V143.756C104.001 143.756 103.948 144.959 104.741 145.661C105.535 146.362 106.725 146.362 106.725 146.362H127.355C127.355 146.362 140.583 147.005 151.557 135.538C156.235 130.342 157.72 125.916 158.896 123.009C161.751 115.954 156.674 116.479 156.674 116.479Z" fill="#E1FCFF"/>
<mask id="mask0_5_903" style="mask-type:alpha" maskUnits="userSpaceOnUse" x="104" y="116" width="56" height="31">
<path d="M156.675 116.479H106.726C106.726 116.479 105.833 116.494 104.94 117.196C104.048 117.897 104.001 119.3 104.001 119.3V143.756C104.001 143.756 103.948 144.959 104.742 145.661C105.535 146.362 106.726 146.362 106.726 146.362H127.356C127.356 146.362 140.584 147.005 151.557 135.538C156.236 130.342 157.721 125.916 158.897 123.009C161.752 115.954 156.675 116.479 156.675 116.479Z" fill="#E1FCFF"/>
</mask>
<g mask="url(#mask0_5_903)">
<path d="M154.105 121.391C156.455 112.616 147.952 106.526 138.868 106.526H113.689C102.744 106.526 93.8713 115.399 93.8713 126.344C93.8713 137.289 102.744 146.162 113.689 146.162H124.289C124.548 146.162 124.804 146.158 125.062 146.136C127.392 145.943 139.824 144.356 148.78 132.23C151.577 128.442 153.207 124.745 154.105 121.391Z" fill="#87F1FF"/>
</g>
<path d="M95 169.225V116H65.0115V139.688C65.0115 139.688 64.2063 152.086 76.0835 163.879C79.4764 167.248 83.0786 168.98 85.9476 170.229C88.9771 171.548 91.3829 172.207 92.6914 171.943C94.9747 171.482 95 169.225 95 169.225Z" fill="#FFDFF4"/>
<mask id="mask1_5_903" style="mask-type:alpha" maskUnits="userSpaceOnUse" x="65" y="116" width="30" height="56">
<path d="M95 169.225V116H65.0115V139.688C65.0115 139.688 64.2063 152.086 76.0835 163.879C79.4764 167.248 83.0786 168.98 85.9476 170.229C88.9771 171.548 91.3829 172.207 92.6914 171.943C94.9747 171.482 95 169.225 95 169.225Z" fill="#FFDFF4"/>
</mask>
<g mask="url(#mask1_5_903)">
<path d="M107.486 163.941V96.1944H65.2171C65.2171 96.1944 63.7075 108.922 63.7075 115.271C63.7075 121.619 63.7075 130.384 65.2171 136.979C66.7267 143.575 67.872 152.114 79.2941 161.235C90.7162 170.356 107.486 163.941 107.486 163.941Z" fill="url(#paint0_linear_5_903)"/>
</g>
</g>
<defs>
<linearGradient id="paint0_linear_5_903" x1="86.2491" y1="96.1943" x2="86.2491" y2="175.652" gradientUnits="userSpaceOnUse">
<stop stop-color="#FF649A"/>
<stop offset="1" stop-color="#FFCEF8"/>
</linearGradient>
<clipPath id="clip0_5_903">
<rect width="230" height="230" rx="115" fill="white"/>
</clipPath>
</defs>
</svg>
