<svg width="140" height="55" viewBox="-10 0 150 55" fill="none" xmlns="http://www.w3.org/2000/svg">
<path d="M64.7884 0C73.842 0.166018 78.5651 6.24479 78.6009 6.29102L118.384 49.8203C118.392 49.829 119.722 51.3505 116.597 52.7559C114.969 53.488 111.929 54.9118 107.431 54.7764C99.3193 54.532 94.2093 48.9404 94.2093 48.9404L54.1976 5.16113C54.1901 5.1534 52.7173 3.6275 55.6995 2.10449C57.2482 1.31358 59.9163 0.0584376 64.7884 0ZM134.6 13.5762C134.6 13.5762 135.558 12.7193 136.629 13.502C137.243 13.9506 137.891 15.2156 138.5 16.9961C139.078 18.6823 139.733 20.8629 139.62 23.584C139.227 33.0879 133.73 37.5158 133.704 37.5361L123.744 46.6387L112.22 34.0293L134.6 13.5762Z" fill="#DBDEE5"/>
<path d="M74.8449 54.7855C65.7984 54.6196 61.0755 48.55 61.0324 48.4945L21.2492 4.96521C21.2492 4.96521 19.9023 3.43904 23.0364 2.02966C24.6644 1.29757 27.7048 -0.126308 32.2024 0.00915527C40.314 0.253547 45.424 5.84509 45.424 5.84509L85.4358 49.6244C85.4517 49.641 86.9073 51.1625 83.9338 52.681C82.3851 53.4719 79.7171 54.7271 74.8449 54.7855ZM5.03342 41.2094C5.02982 41.2126 4.07322 42.0649 3.00412 41.2836C2.39028 40.8349 1.74265 39.57 1.13303 37.7894C0.555709 36.1032 -0.0997312 33.9227 0.0129138 31.2015C0.40633 21.7004 5.90031 17.2724 5.92893 17.2494L15.8899 8.14685L27.4133 20.7562L5.03342 41.2094Z" fill="#DBDEE5"/>
</svg>
